<?xml version="1.0" encoding="UTF-8"?>
<!DOCTYPE svg PUBLIC "-//W3C//DTD SVG 1.1//EN" "http://www.w3.org/Graphics/SVG/1.1/DTD/svg11.dtd">
<!-- Creator: CorelDRAW 2021 (64-Bit) -->
<svg xmlns="http://www.w3.org/2000/svg" xml:space="preserve" width="140mm" height="142.345mm" version="1.1" style="shape-rendering:geometricPrecision; text-rendering:geometricPrecision; image-rendering:optimizeQuality; fill-rule:evenodd; clip-rule:evenodd"
viewBox="0 0 14000 14234.54"
 xmlns:xlink="http://www.w3.org/1999/xlink"
 xmlns:xodm="http://www.corel.com/coreldraw/odm/2003">
 <defs>
  <style type="text/css">
   <![CDATA[
    .fil0 {fill:#00723D}
    .fil1 {fill:#6CC061}
    .fil2 {fill:#6DC161}
   ]]>
  </style>
 </defs>
 <g id="Capa_x0020_1">
  <metadata id="CorelCorpID_0Corel-Layer"/>
  <g id="_2345869680336">
   <path class="fil0" d="M6329.41 8941.22l-1.76 1093.2 -2025.23 299.92 -2.88 -935.11 2029.87 -458.01zm-2019.11 -1562.22c128.49,-72.64 1802.47,-613.35 2018.8,-669.34l6.31 1071.4c-190.99,11.38 -1761.52,474.54 -2035.08,564.57l9.97 -966.63zm2889.33 -3876.61c136.59,28.28 1165.83,583.4 1377.59,692.94l1400.54 680.6 6.84 2272.85c-207.21,-108.3 -390.74,-226.35 -614.93,-341.39 -198.77,-102 -414.21,-205.11 -614.96,-293.39l-1.42 1934.25 722.6 333.65 -10.78 -1087.76 415.08 284.48c62.94,53.23 47.08,35.96 103.07,76.58 84.72,61.47 17.78,7.86 77.24,74.77 52.58,59.18 98.5,87.38 163.04,144.08 70.05,61.55 105.38,98.28 161.36,171.43l155.25 176.6c77.38,100.34 223.95,264.9 234.81,417.32 25.06,351.53 1.22,2105.62 -0.99,2598.26 -95.45,33.65 -84.18,49.2 -198.87,134.04 -1028.89,761.13 -2038.88,1196.05 -3379.4,1222.76l3.93 -9492.07zm-2903.01 1865.6c168.25,-18.13 1755.55,-834.47 2032.69,-914.59l5.66 1109.24c-152.2,14.73 -823.92,304.38 -1010.33,381.96 -342.19,142.41 -697.03,257.88 -1022.03,408.8l-5.99 -985.41zm7210.05 5477.53c-48.04,-505.14 -5.92,-1248.38 -5.49,-1779.08 0.37,-462.84 -40.06,-514.31 -407.95,-948.19l-215.76 -243.01c-99.79,-108.8 -144.84,-104.42 -145.77,-289.77l1.32 -1382.56c-0.1,-603 -13.67,-1223.06 2.86,-1823.99 -269.04,-102.8 -621.04,-307.51 -900.66,-446.05l-2750.62 -1368.24c-90.66,-3.7 -3240.35,1639.98 -3642.8,1815.69l2.17 7353.76c-321.55,-202.78 -915.72,-903.66 -1123.68,-1182.79 -548.57,-736.29 -949.01,-1734.13 -1066.55,-2764.68 -104.51,-916.26 19.82,-1915.43 308.16,-2704.48 215.85,-590.66 440.6,-1013.27 793.7,-1504.82 55.31,-77.01 100.75,-125.08 170.51,-210.68 35.28,-43.29 54.69,-79.12 88.54,-118.22 1022.85,-1181.39 2601.34,-2022.61 4320.58,-2029.95 1796.28,-7.67 2943.67,486.76 4187.95,1551.83 82.14,70.31 149.49,123.53 208.33,211.16 -44.52,82.77 -69.23,88.61 -153.17,164.16l-467.75 452.27c-232.52,399.99 407.29,434.38 680.41,490.41 337.1,69.17 674.68,139.38 1012.1,211.26 245.95,52.4 847.53,259.99 976.77,56.27 57.99,-91.4 -24.17,-2733.63 -125.37,-2878.37 -107.76,-154.12 -279.69,-113.91 -425.84,25.67 -172.45,164.72 -495.53,496.73 -639.74,603.24 -497.36,-571.64 -1401.77,-1120.21 -2087.6,-1457.57 -785.91,-386.59 -1881.57,-630.52 -2911.12,-644.85 -4016.46,-55.89 -7150.06,3053.48 -7191.67,7042.69 -19.19,1839.98 568.44,3266.76 1627.5,4608.08 1081.41,1369.63 3021.03,2579.98 5411.21,2583.02 2140.93,2.74 4172.4,-1026.74 5383.44,-2611.23 689.33,-901.89 1222.02,-1853.18 1443.42,-3026.37 61.07,-323.59 196.69,-1336.95 100.5,-1621.56 -160.04,-473.52 -839.01,-536.03 -1057,-76.2 -155.47,327.95 128.37,2110.73 -1400.93,3943.15z"/>
   <path class="fil1" d="M7195.7 12994.46c1340.52,-26.71 2350.51,-461.63 3379.4,-1222.76 114.69,-84.84 103.42,-100.39 198.87,-134.04 2.21,-492.64 26.05,-2246.73 0.99,-2598.26 -10.86,-152.42 -157.43,-316.98 -234.81,-417.32l-155.25 -176.6c-55.98,-73.15 -91.31,-109.88 -161.36,-171.43 -64.54,-56.7 -110.46,-84.9 -163.04,-144.08 -59.46,-66.91 7.48,-13.3 -77.24,-74.77 -55.99,-40.62 -40.13,-23.35 -103.07,-76.58l-415.08 -284.48 10.78 1087.76 -722.6 -333.65 1.42 -1934.25c200.75,88.28 416.19,191.39 614.96,293.39 224.19,115.04 407.72,233.09 614.93,341.39l-6.84 -2272.85 -1400.54 -680.6c-211.76,-109.54 -1241,-664.66 -1377.59,-692.94l-3.93 9492.07z"/>
   <path class="fil2" d="M4296.62 5367.99l5.99 985.41c325,-150.92 679.84,-266.39 1022.03,-408.8 186.41,-77.58 858.13,-367.23 1010.33,-381.96l-5.66 -1109.24c-277.14,80.12 -1864.44,896.46 -2032.69,914.59z"/>
   <path class="fil2" d="M4310.3 7379l-9.97 966.63c273.56,-90.03 1844.09,-553.19 2035.08,-564.57l-6.31 -1071.4c-216.33,55.99 -1890.31,596.7 -2018.8,669.34z"/>
   <polygon class="fil2" points="4299.54,9399.23 4302.42,10334.34 6327.65,10034.42 6329.41,8941.22 "/>
  </g>
 </g>
</svg>
